<?xml version="1.0" encoding="UTF-8" standalone="no"?>
<!-- Created with Inkscape (http://www.inkscape.org/) -->

<svg
   xmlns:svg="http://www.w3.org/2000/svg"
   xmlns="http://www.w3.org/2000/svg"
   width="39.787743mm"
   height="14.111114mm"
   viewBox="0 0 140.98019 50.000007"
   version="1.1">
   <style>
    .nas.corp-color { fill: #7aa52a; }
    .corp-gray { fill: #312e2a; }
   </style>
  <g class="nas corp-color">
    <path
       class="nas corp-color"
       d="M 4.1805239,49.977712 C 3.2342949,49.886045 2.1721956,49.576713 1.4198231,49.171882 0.98070869,48.935383 0.51415554,48.596717 0.13806921,48.240885 L 0,48.110386 0.00659151,27.817131 0.01318037,7.524044 0.46015096,7.930375 C 1.4848968,8.862205 1.964299,9.201204 2.6486662,9.477869 3.0090797,9.624536 3.3228084,9.714202 3.7204071,9.786868 4.0005,9.838538 4.124458,9.845198 4.8246874,9.843538 5.6560922,9.843204 6.047207,9.816868 6.8229089,9.708538 8.9802415,9.409539 11.021191,8.705209 13.206356,7.505713 c 1.44163,-0.79133 2.892055,-1.791493 4.928982,-3.39882 2.604828,-2.055658 3.621798,-2.839489 4.094909,-3.15632102 0.644481,-0.431498 1.269347,-0.711664 1.931224,-0.865996 0.381675,-0.08833 0.966066,-0.111667 1.314858,-0.05 0.667228,0.116666 1.29897,0.441165 1.765022,0.906996 0.286364,0.28616602 0.388267,0.47949802 0.420553,0.79799702 0.01217,0.12 0.05797,3.655653 0.101683,7.855803 0.04372,4.20015 0.09158,8.795965 0.106367,10.213127 0.01483,1.417327 0.04432,4.244983 0.0656,6.283975 0.09217,8.829799 0.116516,10.396293 0.169413,10.898125 l 0.02078,0.197332 0.0038,-0.158333 c 0.002,-0.08667 0.01533,-1.092495 0.02948,-2.234824 0.0303,-2.446324 0.04318,-3.369821 0.197362,-14.145279 0.06455,-4.511815 0.129416,-8.911131 0.14415,-9.776461 0.01467,-0.86533 0.02677,-2.066992 0.02677,-2.67049 l 0,-1.097162 0.217056,-0.02833 c 0.386809,-0.05167 0.451662,-0.085 1.433125,-0.745663 1.699301,-1.143163 3.015931,-1.696494 4.633698,-1.947493 0.347416,-0.05333 0.47572,-0.05833 1.446083,-0.06 0.847537,-8.33e-4 1.178614,0.01667 1.622347,0.05 l 0.557509,0.05 0.0087,0.961663 c 0.0048,0.528831 0.01133,1.597494 0.01483,2.374657 l 0.0062,1.413328 -1.117847,0 -1.117846,0 0,1.82716 0,1.827493 0.552138,0 0.552141,0 0,-1.248829 0,-1.248995 1.31462,0 1.314618,0 0,-2.274324 0,-2.274158 2.642385,0 2.642386,0 0,2.642323 0,2.642323 -2.274292,0 -2.274292,0 0,1.288328 0,1.288329 -1.104279,0 -1.10428,0 0,1.380328 0,1.380328 -0.473264,0 -0.473263,0 2.64e-4,0.61133 c 0,0.336165 0.0077,0.725497 0.01695,0.865163 0.01583,0.239833 0.0206,0.255666 0.08532,0.287499 0.0523,0.025 0.408848,0.03667 1.508011,0.045 l 1.439507,0.01667 0,1.69316 0,1.69316 2.642385,0 2.642385,0 0,2.78699 0,2.786989 -2.773846,0 -2.773848,0 0,-2.773823 0,-2.773822 -0.920233,0 -0.920234,0 0,3.838651 0,3.838652 1.170012,0 1.17001,0 0,1.735327 0,1.735327 -1.722151,0 -1.72215,0 0,-0.341832 0,-0.341832 -0.420679,0 -0.420678,0 0,1.143662 0,1.143829 0.959673,0 0.959671,0 0,2.379324 0,2.379657 0.723041,0 0.72304,0 0,1.301329 0,1.301495 -1.301473,0 -1.301473,0 -3.95e-4,-0.860997 c -2.62e-4,-0.473665 -0.0092,-0.872997 -0.01972,-0.88733 -0.01183,-0.01667 -0.169514,-0.02333 -0.40713,-0.01833 l -0.387812,0 0,1.654993 0,1.654994 0.985963,0 0.985966,0 0,0.88083 0,0.88083 -0.558714,1.67e-4 c -3.835271,0 -6.355704,0.634164 -8.033524,2.015825 -0.649593,0.534831 -0.832424,0.639831 -1.148859,0.660164 -0.255054,0.01667 -0.403039,-0.02667 -0.553738,-0.158333 -0.279794,-0.246332 -0.289496,-0.310665 -0.393158,-2.609489 -0.10445,-2.316325 -0.135117,-2.749823 -0.226761,-3.206988 -0.144083,-0.718664 -0.513885,-1.176995 -1.131509,-1.402495 -0.17917,-0.065 -0.222674,-0.07 -0.613523,-0.07 -0.591066,1.66e-4 -0.990036,0.09333 -1.524959,0.353665 -0.532136,0.259499 -0.801217,0.466498 -2.603836,2.002492 -2.631367,2.241992 -3.45387,2.898489 -4.573984,3.650486 -3.263067,2.190325 -6.921388,3.474487 -10.4870062,3.680819 -0.5401272,0.03167 -2.1049186,0.03 -2.4357032,-0.0015 z m 30.1047851,-24.14724 0,-0.906996 -0.893942,0 -0.893941,0 0,0.906996 0,0.907163 0.893941,0 0.893942,0 0,-0.907163 z m 1.735296,-10.990123 0,-0.88083 -0.880795,0 -0.880793,0 0,0.88083 0,0.88083 0.880793,0 0.880795,0 0,-0.88083 z m 12.988441,27.409726 0,-1.73516 1.735297,0 1.735297,0 0,1.73516 0,1.735327 -1.735297,0 -1.735297,0 0,-1.735327 z m -7.204115,-0.972663 0,-2.182325 2.182268,0 2.182268,0 0,2.182325 0,2.182158 -2.182268,0 -2.182268,0 0,-2.182158 z m 12.935855,-1.222662 0,-0.722997 0.709894,0 0.709895,0 0,0.722997 0,0.722998 -0.709895,0 -0.709894,0 0,-0.722998 z m -14.09272,-4.32515 0,-1.656326 1.064842,0 1.064841,0 0,-1.708994 0,-1.708993 2.326876,0 2.326876,0 0,2.326657 0,2.326658 -1.728723,0 -1.728725,0 -0.0068,1.031996 -0.0068,1.031996 -1.656115,0 -1.656117,0 0,-1.656494 z m 9.228629,-2.445157 0,-1.735326 1.735296,0 1.735297,0 0,1.735326 0,1.735327 -1.735297,0 -1.735296,0 0,-1.735327 z m -1.025405,-5.297979 0,-0.722997 0.736188,0 0.736187,0 0,0.722997 0,0.723164 -0.736187,0 -0.736188,0 0,-0.723164 z m 5.127017,-0.512665 0,-1.051662 1.051694,0 1.051696,0 0,1.051662 0,1.051663 -1.051696,0 -1.051694,0 0,-1.051663 z m -6.336465,-5.061147 0,-1.485494 1.472372,0 1.472375,0 0,1.485494 0,1.485494 -1.472375,0 -1.472372,0 0,-1.485494 z m 3.970149,-3.746819 0,-1.314661 1.301474,0 1.301473,0 0,1.314661 0,1.314662 -1.301473,0 -1.301474,0 0,-1.314662 z m -8.308394,-2.852655 0,-1.906159 1.893051,0 1.893053,0 0,1.906159 0,1.906159 -1.893053,0 -1.893051,0 0,-1.906159 z m -3.496888,0.146666 c 0,-0.758997 0.0043,-0.84383 0.04523,-0.884663 0.04143,-0.04167 0.11015,-0.04333 0.816143,-0.03 0.647391,0.01667 0.781264,0.02167 0.835557,0.05667 l 0.06465,0.04167 0,0.827663 0,0.827663 -0.880795,0 -0.880796,0 0,-0.839496 z m 10.254032,-2.709989 0,-0.736164 -1.209451,0 -1.209448,0 0,-1.748493 0,-1.748493 1.735296,0 1.735299,0 0,1.327661 0,1.327995 0.617869,0 0.617873,0 0,1.156829 0,1.156829 -1.143719,0 -1.143719,0 0,-0.736164 z m 3.470595,-4.509149 0,-0.907163 0.907088,0 0.907088,0 0,0.907163 0,0.906996 -0.907088,0 -0.907088,0 0,-0.906996 z"/>
    <path
       class="corp-gray"
       d="m 100.56842,18.493667 c -1.418095,-0.174166 -2.837356,-0.86183 -3.743411,-1.813993 -0.804348,-0.845163 -1.283858,-1.860659 -1.520434,-3.219653 -0.05322,-0.305666 -0.05947,-0.427665 -0.05925,-1.156829 2.89e-4,-0.896497 0.0135,-1.017996 0.18309,-1.682827 0.296465,-1.162329 0.969584,-2.300324 1.781564,-3.012155 0.822661,-0.720997 1.895316,-1.191495 3.213831,-1.409661 0.44233,-0.07333 1.72332,-0.065 2.23485,0.01667 1.35533,0.208833 2.41258,0.699164 3.27036,1.516495 0.8046,0.766663 1.33913,1.70516 1.6023,2.813322 0.26733,1.125662 0.28141,2.335491 0.0392,3.365487 -0.19553,0.83133 -0.64246,1.75716 -1.16117,2.405657 -0.17989,0.224833 -0.59501,0.644997 -0.81471,0.824497 -0.63033,0.514998 -1.5118,0.939329 -2.40844,1.159495 -0.65123,0.159999 -1.00333,0.202999 -1.73694,0.212499 -0.37599,0 -0.77234,0 -0.8808,-0.01667 z m 1.62676,-1.906492 c 0.3138,-0.04667 0.7985,-0.197832 1.073,-0.335999 0.93872,-0.472664 1.68481,-1.343328 2.00304,-2.337157 0.19046,-0.594831 0.28224,-1.303328 0.25903,-1.999326 -0.0152,-0.454831 -0.0504,-0.645997 -0.20735,-1.123495 -0.39144,-1.190829 -1.27636,-2.132159 -2.36187,-2.512324 -0.49744,-0.174166 -0.88632,-0.233832 -1.52496,-0.233499 -0.72468,3.33e-4 -1.21403,0.101666 -1.76993,0.364999 -0.895858,0.425165 -1.698675,1.379328 -2.039656,2.42449 -0.279998,0.85833 -0.280745,1.831993 -0.0022,2.822323 0.380982,1.354494 1.165199,2.256157 2.339372,2.689822 0.266404,0.09833 0.738974,0.2125 1.039494,0.250999 0.30249,0.03833 0.89007,0.03333 1.19199,-0.01667 z m -35.881951,1.578327 c -0.09248,-0.07833 -0.555121,-0.78233 -2.60664,-3.969318 -2.621068,-4.071817 -3.211772,-4.98248 -3.23201,-4.98248 -0.02852,0 -0.05463,2.963322 -0.05463,6.196309 l 0,2.795655 -1.025403,0 -1.025403,0 0,-4.725981 c -1.8e-5,-2.599323 -0.0078,-5.250313 -0.01745,-5.890977 l -0.01742,-1.164995 1.351789,0.01667 c 0.743486,0 1.371758,0.01833 1.396163,0.03 0.08692,0.04167 0.287284,0.343332 3.288153,4.946648 2.125395,3.260654 2.317396,3.551486 2.409128,3.649985 l 0.06897,0.07333 0.01317,-4.346649 0.01317,-4.346483 1.045123,0 1.045122,0 0,5.902977 0,5.90281 -1.286306,0 -1.286312,0 -0.07912,-0.06667 z m 3.673871,0.04167 -0.174174,-0.01667 0.283089,-0.657164 c 0.592714,-1.376328 4.071509,-9.37263 4.432402,-10.18846 0.235136,-0.531498 0.397929,-0.86683 0.430584,-0.88733 0.03903,-0.025 0.264245,-0.03333 0.878161,-0.03333 0.748186,0 0.83073,0 0.879785,0.04667 0.0775,0.06667 0.0087,-0.09167 4.755568,10.930957 0.137,0.318166 0.271939,0.635664 0.299866,0.705831 l 0.05078,0.126666 -1.169695,-0.01667 c -0.996348,0 -1.175512,-0.01667 -1.208961,-0.04833 -0.04727,-0.04833 -0.259532,-0.542665 -0.714402,-1.66666 -0.237977,-0.588164 -0.361515,-0.860996 -0.413642,-0.913663 l -0.07433,-0.075 -2.444015,0 c -2.036336,0 -2.458721,0 -2.532182,0.03667 -0.0793,0.03333 -0.09933,0.065 -0.199234,0.321999 -0.324814,0.834163 -0.823689,2.078658 -0.868417,2.166324 -0.09642,0.189 -0.0612,0.183333 -1.102916,0.178166 -0.513754,0 -1.012479,-0.01667 -1.108275,-0.02 z m 7.537462,-4.662148 c -0.03408,-0.09 -0.336103,-0.885997 -0.671172,-1.76816 -0.335069,-0.88233 -0.711019,-1.87316 -0.835442,-2.202159 -0.124416,-0.328998 -0.233952,-0.598164 -0.243397,-0.598164 -0.0095,0 -0.405375,1.008663 -0.879847,2.241492 -0.474473,1.232828 -0.88451,2.297658 -0.911189,2.366324 l -0.04852,0.125 1.82576,0 1.825758,0 -0.06195,-0.165 z m 40.055038,4.662648 c -0.094,-0.01667 -0.1849,-0.025 -0.20201,-0.03667 -0.0563,-0.03667 -0.48022,-0.683497 -2.29506,-3.502819 -2.47362,-3.842985 -3.42014,-5.309146 -3.47226,-5.378146 -0.0246,-0.03333 -0.0577,-0.05 -0.0743,-0.04 -0.0221,0.01667 -0.0299,1.176829 -0.0299,4.486816 l 0,4.467982 -1.0386,0 -1.03861,0 0.007,-5.88281 0.007,-5.882977 1.30148,0 c 1.46153,0 1.37014,-0.01667 1.56665,0.201832 0.12272,0.133333 0.18196,0.222 1.31277,1.967326 1.98894,3.069822 4.28224,6.573141 4.30269,6.573141 0.0122,0 0.022,-1.969992 0.022,-4.377816 l 0,-4.37765 1.03855,0 1.03855,0 0,5.902811 0,5.902476 -1.13715,0 c -0.62543,0 -1.21405,-0.01667 -1.30804,-0.02 z m 3.62177,0 c -0.0832,0 -0.15118,-0.01667 -0.15118,-0.02167 0,0 0.33007,-0.772164 0.73347,-1.70116 1.4155,-3.259487 4.17725,-9.604629 4.2548,-9.775462 0.1361,-0.299665 0.0932,-0.287665 1.02966,-0.287165 0.58604,1.66e-4 0.82237,0.01667 0.86903,0.03333 0.0795,0.04 0.12123,0.134999 2.09823,4.725648 2.32379,5.396979 3.00414,6.986139 3.00414,7.017472 0,0.04 -2.24273,0.04 -2.318,3.34e-4 -0.0683,-0.03667 -0.14641,-0.209666 -0.65495,-1.450495 -0.4674,-1.140661 -0.47816,-1.164161 -0.54877,-1.201994 -0.0701,-0.03833 -4.95462,-0.03833 -5.02476,0 -0.0717,0.03833 -0.0957,0.09167 -0.44789,0.992496 -0.47287,1.209828 -0.61993,1.544993 -0.7119,1.622493 l -0.0785,0.06667 -0.95108,0 c -0.52309,0 -1.01911,-0.01667 -1.10226,-0.01667 z m 7.59905,-4.549149 c -0.0216,-0.08333 -1.76193,-4.672482 -1.77897,-4.691815 -0.0115,-0.01667 -1.68443,4.27515 -1.83897,4.713482 -0.005,0.01667 0.67925,0.025 1.81067,0.025 1.72739,0 1.81882,0 1.80727,-0.04667 z m -44.585865,-0.387331 0,-4.929982 -1.814175,0 -1.814174,0 0,-0.959663 0,-0.959663 4.653752,0 4.653753,0 0,0.946663 0,0.946497 -1.801028,0 -1.801028,0 0,4.942981 0,4.942814 -1.038549,0 -1.038551,0 0,-4.929647 z m 7.2567,-0.959663 0,-5.889645 1.038548,0 1.038549,0 0,5.889645 0,5.88931 -1.038549,0 -1.038548,0 0,-5.88931 z m 42.416135,0 0.007,-5.882978 1.04512,0 1.04512,0 0,4.956315 0,4.95648 2.49778,0 2.49778,0 0,0.93333 0,0.933329 -3.54953,0 -3.54953,0 0.007,-5.88281 z"/>
    <path
       class="corp-gray"
       d="m 86.329215,33.154944 c -2.815884,-0.346832 -4.77895,-2.102825 -5.285565,-4.728149 -0.124816,-0.64683 -0.170046,-1.60266 -0.103982,-2.198158 0.174349,-1.571494 0.894333,-3.030321 1.95512,-3.961318 0.854942,-0.750497 2.043431,-1.254162 3.368869,-1.427994 0.421612,-0.055 1.322443,-0.055 1.719785,3.33e-4 0.780082,0.108333 1.518894,0.383499 2.147437,0.798497 0.328765,0.217166 0.726102,0.557165 0.938243,0.802997 l 0.180271,0.208999 -0.06092,0.04833 c -0.08252,0.06667 -1.237137,0.93133 -1.402671,1.050663 l -0.132316,0.095 -0.262073,-0.236833 c -0.569064,-0.514165 -1.134026,-0.793997 -1.799818,-0.89133 -0.275107,-0.04 -0.994634,-0.01833 -1.251613,0.03667 -0.767374,0.167333 -1.455238,0.526998 -1.991133,1.041163 -0.472215,0.452998 -0.780552,0.94233 -0.989834,1.570994 -0.137,0.411498 -0.202799,0.75233 -0.237823,1.232162 -0.100116,1.371494 0.317801,2.621989 1.171746,3.505819 0.542489,0.561498 1.170525,0.917996 1.941689,1.101996 0.267724,0.06333 0.336192,0.07 0.830765,0.06833 0.494962,-0.0012 0.559581,0 0.791009,-0.07 0.683035,-0.184333 1.092952,-0.437998 1.703385,-1.054163 l 0.272689,-0.275165 0.82359,0.588831 c 0.452973,0.323832 0.831267,0.601331 0.840653,0.616497 0.03225,0.05167 -0.127016,0.248666 -0.510676,0.630165 -0.279576,0.277999 -0.462585,0.434331 -0.671464,0.573831 -0.622761,0.415998 -1.336643,0.686997 -2.19749,0.83433 -0.294122,0.05 -1.476159,0.07333 -1.787883,0.035 z m 47.118335,-0.0013 c -0.63552,-0.07333 -1.56854,-0.410665 -2.10572,-0.760497 -0.21604,-0.139999 -0.49768,-0.372332 -0.68161,-0.560497 -0.11725,-0.12 -0.13825,-0.155 -0.11831,-0.197 0.0133,-0.02833 0.34312,-0.396665 0.73286,-0.819163 l 0.70862,-0.768164 0.0901,0.101666 c 0.42074,0.474332 0.76041,0.739498 1.16394,0.908497 0.97748,0.409165 2.13498,0.253499 2.76115,-0.371165 0.28512,-0.284499 0.41764,-0.610331 0.41764,-1.02683 0,-0.552998 -0.25172,-0.972163 -0.73215,-1.219162 -0.29255,-0.149999 -0.47642,-0.225332 -1.67893,-0.68533 -0.54658,-0.209 -1.07069,-0.411665 -1.16469,-0.450165 -1.13051,-0.463165 -1.75894,-1.195996 -1.961,-2.286491 -0.0571,-0.308499 -0.0565,-0.938163 0.001,-1.262162 0.25409,-1.425328 1.14317,-2.301825 2.80116,-2.760989 0.89384,-0.247666 1.74148,-0.285333 2.5898,-0.115 0.66983,0.134999 1.5228,0.511831 1.99648,0.88333 0.14365,0.113333 0.26505,0.217166 0.26977,0.231999 0.007,0.02333 -0.9002,1.004663 -1.34777,1.457828 l -0.14223,0.143332 -0.13833,-0.133332 c -0.58168,-0.563331 -1.24259,-0.802831 -2.11,-0.764497 -0.58556,0.025 -1.04476,0.202999 -1.36991,0.528831 -0.27706,0.277499 -0.40308,0.569498 -0.40446,0.937163 -0.001,0.349832 0.12185,0.642997 0.37766,0.89883 0.20958,0.209666 0.62569,0.411165 1.59363,0.771663 2.00342,0.746164 2.31035,0.899497 2.81328,1.404662 0.38997,0.391831 0.61392,0.81383 0.74032,1.395661 0.0783,0.359999 0.0851,1.157829 0.0132,1.549161 -0.13154,0.716164 -0.44233,1.317828 -0.93756,1.815159 -0.62579,0.628164 -1.50906,1.016163 -2.62856,1.154496 -0.26004,0.03167 -1.26666,0.03167 -1.54956,0 z M 58.391063,32.828612 c 0.009,-0.035 0.529523,-1.245495 1.156721,-2.688323 0.627199,-1.442661 1.64599,-3.788652 2.263981,-5.213147 1.671967,-3.853485 1.600477,-3.695652 1.714503,-3.786485 0.0728,-0.05833 0.07737,-0.05833 0.876139,-0.04667 0.567584,0.01667 0.820825,0.02167 0.8639,0.045 0.08753,0.04667 -0.267499,-0.761997 3.197112,7.284305 1.700637,3.949818 1.906316,4.430817 1.906316,4.457816 0,0 -0.519358,0.01667 -1.154129,0 -1.082769,0 -1.15747,-0.01667 -1.208187,-0.05667 -0.05987,-0.055 -0.217837,-0.416665 -0.713895,-1.63816 -0.183029,-0.450499 -0.353175,-0.85033 -0.378102,-0.888497 -0.02493,-0.03833 -0.07505,-0.08 -0.111383,-0.095 -0.04027,-0.01667 -1.021404,-0.025 -2.512577,-0.025 l -2.44651,0 -0.06665,0.07333 c -0.04227,0.04667 -0.243722,0.519998 -0.550563,1.294995 -0.266147,0.672164 -0.50127,1.248661 -0.522498,1.281161 l -0.0386,0.05833 -1.145964,0 -1.145964,0 0.01633,-0.065 z m 7.739069,-4.476816 c -0.007,-0.025 -0.263403,-0.708664 -0.569865,-1.518494 -0.306462,-0.809664 -0.706415,-1.866493 -0.888786,-2.348491 -0.194856,-0.514832 -0.339332,-0.861664 -0.350381,-0.84133 -0.03895,0.07167 -1.812789,4.694148 -1.812789,4.723481 0,0.02333 0.448238,0.03 1.817241,0.03 1.718,0 1.81655,0 1.80458,-0.04667 z m 5.08096,-1.360662 0,-5.902477 1.308047,0.0017 c 2.073052,0 3.788348,0.04 4.08668,0.08667 0.535427,0.085 1.026115,0.238499 1.448323,0.450999 0.325737,0.163332 0.525621,0.305165 0.774987,0.546997 0.445645,0.432499 0.694949,0.913497 0.813059,1.568661 0.06392,0.354499 0.06238,1.132162 -0.0028,1.472328 -0.182897,0.952829 -0.735554,1.699826 -1.565867,2.116825 -0.239134,0.119999 -0.398235,0.176999 -0.772185,0.276165 -0.157166,0.04167 -0.290696,0.08167 -0.296709,0.08667 -0.006,0 0.322209,0.565665 0.729375,1.243662 0.855297,1.424162 2.098759,3.51732 2.243257,3.776319 l 0.099,0.177499 -1.223392,0 -1.223392,0 -0.06443,-0.05833 c -0.05253,-0.04833 -0.815055,-1.428494 -2.480705,-4.490816 -0.09085,-0.166999 -0.200393,-0.337332 -0.243431,-0.378498 -0.0901,-0.08667 -0.05337,-0.08333 -0.954448,-0.07333 l -0.571861,0 0,2.49799 0,2.497657 -1.051694,0 -1.051696,0 0,-5.902644 z m 4.062174,-0.919663 c 0.54795,-0.01667 0.831035,-0.045 1.126552,-0.131666 0.744891,-0.217832 1.096651,-0.696164 1.102515,-1.498994 0.0032,-0.434832 -0.129817,-0.769497 -0.408504,-1.027496 -0.254019,-0.235166 -0.559879,-0.367499 -1.031793,-0.446498 -0.340047,-0.05667 -1.452299,-0.09667 -2.149401,-0.075 l -0.598153,0.01667 0,1.596993 0,1.596828 0.703322,-0.01667 c 0.386827,0 0.951785,-0.01667 1.255462,-0.02167 z m 17.523877,0.93283 0,-5.889477 1.051696,0 1.051694,0 0,2.326824 0,2.326824 2.747555,0 2.747552,0 0,-2.326824 0,-2.326824 1.0517,0 1.05169,0 0,5.889477 0,5.889477 -1.03855,0 -1.03854,0 0,-2.589657 0,-2.58999 -2.760706,0 -2.760701,0 0,2.58999 0,2.589657 -1.051694,0 -1.051696,0 0,-5.889477 z m 12.304837,0 0,-5.889477 1.0254,0 1.02541,0 0,2.729989 c 0,1.501494 0.008,4.151817 0.0175,5.889644 l 0.0175,3.159321 -1.0429,0 -1.04289,0 0,-5.889477 z m 8.28803,5.830144 c -0.0794,-0.085 -0.0914,-0.113333 -1.05204,-2.569823 -0.47794,-1.221829 -1.44504,-3.688986 -2.14912,-5.481979 -1.47016,-3.744152 -1.43223,-3.646819 -1.43223,-3.673653 0,-0.01667 0.51853,-0.02 1.15228,-0.02 l 1.15229,0 0.0551,0.05833 c 0.0693,0.075 0.17117,0.331832 0.63729,1.610328 0.2712,0.74383 2.22937,6.161642 2.58381,7.148638 l 0.0273,0.07667 0.0328,-0.06333 c 0.0375,-0.07167 0.25683,-0.65783 1.55411,-4.151483 1.87521,-5.049481 1.69867,-4.593649 1.79473,-4.634149 0.0438,-0.01833 0.44704,-0.03333 1.1299,-0.04 l 1.0618,-0.01667 -0.0187,0.075 c -0.0191,0.07667 -0.68135,1.72816 -2.22327,5.543812 -0.47918,1.185662 -1.22639,3.037488 -1.66049,4.114817 -0.55844,1.385828 -0.80824,1.975992 -0.85416,2.017825 -0.0644,0.05833 -0.0707,0.05833 -0.90022,0.05833 -0.83335,0 -0.83544,-1.66e-4 -0.89113,-0.06 z m 7.8555,-5.830144 0,-5.889477 3.89127,0 3.89127,0 0,0.933496 0,0.93333 -2.83957,0 -2.83958,0 0,1.445994 0,1.445995 2.6953,0 2.69529,0 -0.007,0.953163 -0.007,0.953163 -2.6884,0 -2.6884,0 0,1.603827 0,1.60366 2.99733,0 2.99733,0 0,0.946496 0,0.946497 -4.04902,0 -4.04903,0 0,-5.889477 z"/>
    <path
       class="corp-gray"
       d="m 62.028466,43.988735 c -1.840615,-0.177166 -3.271539,-1.521161 -3.607909,-3.38882 -0.08213,-0.455998 -0.08242,-1.269662 -5.79e-4,-1.675994 0.172961,-0.858996 0.5614,-1.570994 1.181407,-2.165825 0.588375,-0.564331 1.336607,-0.936829 2.165764,-1.078162 0.284254,-0.04833 0.3953,-0.05333 0.865108,-0.04167 0.591921,0.01667 0.857355,0.05667 1.280413,0.204666 1.577761,0.548998 2.631928,1.951326 2.738541,3.642653 0.114383,1.814659 -0.741777,3.359653 -2.270511,4.097317 -0.490153,0.236666 -0.933643,0.354666 -1.527436,0.406832 -0.350075,0.03 -0.500816,0.03 -0.824803,-6.67e-4 z m 0.860558,-0.734664 c 0.483633,-0.06 0.940278,-0.216999 1.356898,-0.464831 0.263076,-0.156666 0.769379,-0.648331 0.946703,-0.91983 0.523767,-0.80183 0.708284,-1.694327 0.546702,-2.644156 -0.202185,-1.188496 -0.807476,-2.065159 -1.743192,-2.524824 -0.482998,-0.237332 -0.916808,-0.334165 -1.495338,-0.334165 -0.562227,0 -1.024009,0.103333 -1.477934,0.330998 -0.909898,0.456332 -1.571559,1.381328 -1.742653,2.436324 -0.04627,0.285166 -0.05255,0.972996 -0.01167,1.273329 0.247001,1.812826 1.845285,3.069821 3.620461,2.847155 z M 98.4162,44.000568 c -0.03615,0 -0.154466,-0.02167 -0.262924,-0.03667 -0.441857,-0.06333 -0.975668,-0.233499 -1.406635,-0.450498 -1.006054,-0.506665 -1.789478,-1.563828 -2.034327,-2.74549 -0.273164,-1.318161 0.04317,-2.704823 0.839372,-3.679486 0.642599,-0.786496 1.489546,-1.241661 2.64103,-1.419494 0.364035,-0.05667 1.335559,-0.04 1.62753,0.02667 0.624024,0.143332 1.177194,0.416998 1.645704,0.815496 l 0.18463,0.156666 -0.26948,0.270333 c -0.14821,0.148333 -0.29085,0.277332 -0.31699,0.285665 -0.032,0.01667 -0.0836,-0.01833 -0.15798,-0.08667 -0.37104,-0.340999 -0.8908,-0.600498 -1.412693,-0.704997 -0.284377,-0.05667 -0.88682,-0.07833 -1.1619,-0.04167 -0.482207,0.065 -0.914495,0.215499 -1.305914,0.455498 -0.307413,0.1885 -0.778875,0.661165 -0.971812,0.974163 -0.397249,0.644331 -0.584532,1.407995 -0.546305,2.227825 0.01845,0.395665 0.06138,0.645831 0.164549,0.958996 0.276418,0.838997 0.918528,1.595494 1.651182,1.945493 0.508777,0.242999 0.902948,0.314832 1.618812,0.294832 0.713936,-0.02 1.213291,-0.133333 1.738941,-0.394999 0.33427,-0.166666 0.31178,-0.055 0.31182,-1.548827 l 0,-1.255495 -0.94652,0 -0.946528,0 0,-0.381165 0,-0.381332 1.357238,0 1.35724,0 -0.0123,1.899659 c -0.009,1.290995 -0.0216,1.922159 -0.0412,1.969993 -0.035,0.085 -0.16401,0.161666 -0.54431,0.324832 -0.61361,0.262165 -1.257293,0.442165 -1.826629,0.511164 -0.208506,0.025 -0.826822,0.03167 -0.973508,0.01667 z m 22.66404,-0.01667 c -0.57411,-0.035 -1.04056,-0.16 -1.5644,-0.415165 -0.39452,-0.192666 -0.76395,-0.466165 -1.09364,-0.809664 -0.52086,-0.542664 -0.84144,-1.157495 -1.04004,-1.994159 -0.0723,-0.304665 -0.0743,-0.333498 -0.0733,-1.023329 0.001,-0.708997 0.001,-0.710331 0.0826,-1.015496 0.42378,-1.589827 1.54255,-2.66749 3.14078,-3.025322 0.24461,-0.055 0.33542,-0.06 0.90298,-0.06 0.59393,0.0017 0.64943,0 0.94446,0.075 0.71012,0.165 1.24679,0.424332 1.75051,0.844497 0.69125,0.576831 1.09792,1.234995 1.34323,2.174158 0.0806,0.308666 0.085,0.350665 0.0964,0.935163 0.01,0.496832 0.003,0.662664 -0.0329,0.880497 -0.15682,0.937829 -0.56638,1.72266 -1.22002,2.337991 -0.85561,0.80533 -1.94874,1.175328 -3.23665,1.095495 z m 0.80129,-0.733497 c 0.34733,-0.04 0.6247,-0.118333 0.92428,-0.260333 0.30905,-0.146666 0.50919,-0.277999 0.73981,-0.484165 0.46869,-0.419165 0.79947,-0.913829 0.97957,-1.464827 0.1387,-0.424499 0.169,-0.643331 0.169,-1.220662 0,-0.563331 -0.029,-0.785497 -0.15898,-1.217162 -0.21234,-0.705164 -0.71812,-1.388995 -1.3213,-1.786493 -0.58274,-0.383999 -1.12805,-0.502165 -1.98504,-0.430165 -0.95718,0.08 -1.52956,0.328665 -2.08693,0.905163 -0.6768,0.699664 -0.99044,1.472494 -0.9889,2.436657 10e-4,0.778331 0.20333,1.537994 0.56424,2.120825 0.16367,0.264333 0.5621,0.684831 0.79856,0.84283 0.64586,0.431499 1.56954,0.649498 2.36569,0.558332 z m -43.066306,0.698664 c -0.39739,-0.07333 -0.78268,-0.2205 -1.112271,-0.424999 -0.217629,-0.134999 -0.71505,-0.603664 -0.71505,-0.673664 0,-0.04167 0.617544,-0.516998 0.674424,-0.518331 0.01667,-5e-4 0.09068,0.07333 0.164549,0.164999 0.273373,0.336832 0.636326,0.575498 1.050961,0.690664 0.225274,0.06333 0.838834,0.07833 1.076069,0.02833 0.391192,-0.08333 0.805757,-0.353665 1.0195,-0.664664 0.196752,-0.286499 0.259837,-0.506998 0.241452,-0.844496 -0.01517,-0.278166 -0.08403,-0.471999 -0.243022,-0.683498 -0.222603,-0.295999 -0.527317,-0.469665 -1.367847,-0.779663 -0.260294,-0.09667 -0.621159,-0.228833 -0.801918,-0.295499 -0.821102,-0.302332 -1.231864,-0.607498 -1.471178,-1.092829 -0.158483,-0.321499 -0.192207,-0.522165 -0.178012,-1.059163 0.0098,-0.373832 0.02142,-0.474831 0.07062,-0.617331 0.205049,-0.593998 0.565946,-0.989829 1.164697,-1.277495 0.386844,-0.185999 0.821002,-0.274332 1.347248,-0.274332 0.818685,0 1.453196,0.224832 1.985308,0.70383 0.07967,0.07167 0.161182,0.161666 0.18116,0.198166 0.04187,0.07833 0.0614,0.05833 -0.371281,0.395665 l -0.254649,0.199166 -0.23226,-0.232332 c -0.189834,-0.189833 -0.272902,-0.251666 -0.454758,-0.338665 -0.302822,-0.145 -0.465638,-0.175333 -0.932396,-0.1745 -0.356812,5e-4 -0.414622,0 -0.606786,0.07167 -0.730411,0.242999 -1.166241,0.909163 -1.029774,1.573494 0.0809,0.393831 0.274348,0.659497 0.633715,0.869996 0.234058,0.136666 0.787106,0.373499 1.489255,0.636498 0.296445,0.111666 0.673887,0.267332 0.838758,0.347332 0.267761,0.129999 0.325615,0.171166 0.541936,0.386332 0.198586,0.197665 0.261803,0.281165 0.351239,0.464498 0.170893,0.350165 0.222311,0.598164 0.206662,0.996829 -0.0135,0.341832 -0.04872,0.512665 -0.168239,0.81433 -0.279355,0.704831 -1.028106,1.253495 -1.924982,1.410328 -0.270091,0.04667 -0.916447,0.04667 -1.173141,0 z m 52.684026,-0.145 c -0.17797,-0.04167 -0.26209,-0.136666 -0.48042,-0.539664 -0.11248,-0.207666 -1.6192,-2.779323 -1.74643,-2.980822 -0.11958,-0.1895 -0.11046,-0.187333 -0.823,-0.187333 l -0.63831,0 0,1.853493 0,1.853659 -0.39439,0 -0.39438,0 0,-3.983317 0,-3.983318 0.6113,0 c 0.33621,0.0012 1.07864,0.01667 1.64984,0.02333 1.01696,0.02 1.04335,0.02167 1.26951,0.09 0.43035,0.129999 0.70162,0.277832 0.96104,0.526331 0.38284,0.366665 0.55591,0.81183 0.55626,1.430494 2.7e-4,0.418165 -0.0504,0.663331 -0.20197,0.977497 -0.10275,0.212999 -0.15475,0.283332 -0.35993,0.487164 -0.33281,0.330666 -0.68031,0.504665 -1.20791,0.604831 -0.11627,0.02167 -0.21613,0.045 -0.22194,0.05 -0.0157,0.01667 -0.0375,-0.02167 1.13996,1.923659 0.60063,0.991996 1.08494,1.810993 1.07626,1.81966 -0.0461,0.04667 -0.63655,0.07 -0.79549,0.03167 z m -1.32186,-4.559982 c 0.35079,-0.09 0.62019,-0.268832 0.78869,-0.521165 0.28456,-0.426165 0.32818,-0.92133 0.1189,-1.349995 -0.12197,-0.249832 -0.30867,-0.432665 -0.57726,-0.565164 -0.32526,-0.159999 -0.66978,-0.201666 -2.30881,-0.275332 l -0.36152,-0.01667 0,1.398161 0,1.397995 1.08456,-0.01667 c 0.90309,-0.01667 1.11315,-0.02 1.25544,-0.05667 z m -62.076314,0.575998 0,-3.983318 2.392607,0 2.392607,0 0,0.354832 0,0.354998 -1.863087,0 c -1.0247,0 -1.917985,0 -1.985078,0.01667 l -0.121982,0.01667 0,1.337162 0,1.337161 1.847041,0 1.847038,0 0.0073,0.374666 0.0073,0.374665 -1.854333,0 -1.854336,0 0,1.892992 0,1.89316 -0.407533,0 -0.407532,0 0,-3.983318 z m 15.670262,0 0,-3.983318 0.381242,0 0.381239,0 0,3.983318 0,3.983317 -0.381239,0 -0.381242,0 0,-3.983317 z m 2.956889,3.950318 c -0.0068,-0.01833 -0.0095,-1.813493 -0.0057,-3.989652 l 0.0068,-3.957151 0.477132,0 c 0.440117,0 0.481668,0 0.535593,0.05167 0.07765,0.07 0.677572,0.911496 2.708408,3.799318 0.930494,1.323162 1.769454,2.516157 1.864354,2.65099 l 0.172546,0.245332 0.0067,-3.367487 0.0067,-3.367487 0.407434,0 0.407432,0 0,3.983318 0,3.983318 -0.48149,0 -0.48149,0 -0.06782,-0.07167 c -0.0373,-0.04 -0.793217,-1.113496 -1.679814,-2.385991 -0.886597,-1.272495 -1.921294,-2.757323 -2.299329,-3.299654 -0.378036,-0.542331 -0.706921,-0.989996 -0.730861,-0.994663 -0.04032,0 -0.04352,0.240333 -0.04352,3.372154 l 0,3.380487 -0.395211,0 c -0.291972,0 -0.398476,-0.01667 -0.407713,-0.03333 z m 15.921043,0 c 0,-0.04667 3.34521,-7.736137 3.40601,-7.82897 0.0603,-0.09167 0.19369,-0.138333 0.39324,-0.138333 0.27281,0 0.44322,0.09667 0.57894,0.328666 0.0339,0.05833 0.31549,0.696664 0.62586,1.419827 0.31037,0.723164 1.01374,2.349991 1.56306,3.615153 0.54932,1.265328 1.02499,2.361991 1.05706,2.436991 0.0321,0.075 0.0505,0.148332 0.0411,0.164999 -0.0187,0.03 -0.65223,0.035 -0.78878,0 -0.0462,-0.01667 -0.10063,-0.05 -0.13386,-0.1 -0.0482,-0.07167 -0.42642,-0.937996 -0.69726,-1.597327 -0.047,-0.114999 -0.11722,-0.243666 -0.156,-0.286999 l -0.0705,-0.07833 -1.96197,0 c -1.35273,0 -1.9785,0.01667 -2.01519,0.03167 -0.0709,0.03833 -0.0875,0.07167 -0.45217,0.941496 -0.17324,0.412665 -0.34512,0.810664 -0.38196,0.884163 -0.11808,0.235833 -0.0925,0.225833 -0.57777,0.225833 -0.25143,0 -0.42974,-0.01667 -0.42974,-0.025 z m 5.5364,-2.886989 c -0.009,-0.025 -0.3918,-0.960163 -0.84997,-2.077159 -0.74017,-1.804826 -0.83648,-2.024659 -0.86378,-1.972159 -0.0248,0.04833 -1.6207,3.892318 -1.68131,4.050151 -0.0162,0.04167 0.0895,0.045 1.69735,0.045 1.6219,0 1.71372,0 1.69771,-0.04667 z m 3.28908,2.894155 c -0.01,-0.01667 -0.0175,-1.814993 -0.0175,-4.012151 l 0,-3.994818 0.82164,0.01667 c 1.98979,0.04167 2.59668,0.111666 3.09019,0.359665 0.3625,0.181833 0.72471,0.561498 0.88802,0.93083 0.1991,0.450331 0.22514,1.040829 0.0666,1.511161 -0.19293,0.572164 -0.52184,0.960329 -1.01387,1.196495 -0.45055,0.216166 -0.8329,0.270166 -2.0713,0.292832 l -0.96624,0.01833 0,1.849327 0,1.849326 -0.39001,0 c -0.2145,0 -0.39789,0 -0.40753,-0.01833 z m 2.80452,-4.504816 c 0.66019,-0.138332 1.02236,-0.420831 1.17489,-0.914663 0.22929,-0.74233 -0.10816,-1.412161 -0.8287,-1.644493 -0.25223,-0.08167 -0.77807,-0.13 -2.01794,-0.188333 l -0.33523,-0.01667 0,1.403662 c 0,0.771997 0.009,1.412994 0.0197,1.424327 0.0108,0.01667 0.40425,0.01667 0.87423,0 0.72168,-0.01667 0.89469,-0.02333 1.11304,-0.07 z m 19.07951,0.539165 0,-3.983318 2.47149,0 2.47148,0 0,0.354665 0,0.354832 -2.05738,0 -2.05738,0 -0.007,1.360828 -0.007,1.360495 1.91958,0 1.91958,0 0,0.381332 0,0.381165 -1.91934,0 -1.91935,0 0,1.494661 0,1.494661 0.25635,0.01667 c 0.14098,0.01667 1.09344,0.01667 2.11654,0.01667 l 1.86019,1.67e-4 0,0.368165 0,0.367999 -2.52407,0 -2.52407,0 0,-3.983152 z"/>
  </g>
</svg>
