<?xml version="1.0" standalone="no"?>
<!DOCTYPE svg PUBLIC "-//W3C//DTD SVG 20010904//EN"
 "http://www.w3.org/TR/2001/REC-SVG-20010904/DTD/svg10.dtd">
<svg version="1.0" xmlns="http://www.w3.org/2000/svg"
 width="842.000000pt" height="596.000000pt" viewBox="0 0 842.000000 596.000000"
 preserveAspectRatio="xMidYMid meet">

<g transform="translate(0.000000,596.000000) scale(0.100000,-0.100000)"
fill="#000000" stroke="none">
<path d="M5600 4131 c-134 -44 -212 -147 -212 -281 0 -166 118 -282 287 -284
119 -1 225 66 271 171 25 57 24 176 -2 234 -27 59 -85 116 -143 142 -49 22
-160 32 -201 18z m160 -106 c113 -58 134 -233 38 -322 -71 -66 -211 -54 -266
24 -65 92 -47 221 39 286 50 36 130 42 189 12z"/>
<path d="M3672 3853 l3 -278 47 -3 48 -3 2 196 3 196 150 -195 150 -195 43 0
42 -1 0 280 0 280 -50 0 -50 0 -2 -186 -3 -186 -144 186 -144 186 -49 0 -48 0
2 -277z"/>
<path d="M4370 3963 c-40 -92 -95 -217 -122 -276 -26 -60 -48 -111 -48 -113 0
-2 23 -4 51 -4 l50 0 31 70 31 70 127 0 126 0 31 -70 31 -70 51 0 c28 0 51 1
51 3 0 2 -54 127 -119 278 l-120 274 -49 3 -48 3 -74 -168z m168 -65 c23 -55
41 -102 40 -102 -2 -1 -42 1 -90 4 l-86 5 41 98 c23 53 44 97 47 97 3 0 24
-46 48 -102z"/>
<path d="M4710 4085 l0 -45 90 0 90 0 0 -235 0 -235 50 0 50 0 0 235 0 235 85
0 85 0 0 45 0 45 -225 0 -225 0 0 -45z"/>
<path d="M5220 3850 l0 -280 50 0 50 0 0 280 0 280 -50 0 -50 0 0 -280z"/>
<path d="M6030 3850 l0 -280 50 0 50 0 0 196 0 197 152 -197 152 -196 43 0 43
0 0 280 0 280 -50 0 -50 0 -2 -187 -3 -188 -145 187 -145 188 -47 0 -48 0 0
-280z"/>
<path d="M6797 4123 c-10 -17 -237 -541 -237 -547 0 -3 22 -6 49 -6 l48 0 31
70 31 70 126 0 127 0 31 -70 31 -70 48 0 c29 0 48 4 48 11 0 6 -53 132 -117
280 l-118 269 -47 0 c-26 0 -49 -3 -51 -7z m92 -212 c23 -52 41 -98 41 -103 0
-4 -39 -8 -86 -8 -78 0 -86 2 -80 18 16 43 80 191 82 189 1 -1 21 -44 43 -96z"/>
<path d="M7180 3850 l0 -280 195 0 195 0 0 49 c0 39 -3 48 -17 48 -10 0 -75 1
-145 2 l-128 1 0 230 0 230 -50 0 -50 0 0 -280z"/>
<path d="M4982 3423 c-62 -18 -134 -78 -163 -135 -106 -208 51 -448 279 -425
59 6 148 45 177 77 18 20 18 21 -12 51 l-30 31 -48 -31 c-80 -51 -184 -42
-242 21 -53 56 -67 151 -34 223 20 45 70 92 107 101 49 13 128 -1 171 -30 l42
-28 30 34 c17 18 31 35 31 38 0 3 -21 19 -48 37 -77 53 -163 64 -260 36z"/>
<path d="M7295 3430 c-103 -23 -159 -108 -134 -202 16 -61 66 -93 211 -133 67
-18 88 -36 88 -74 0 -84 -139 -89 -251 -9 -13 9 -22 5 -47 -23 l-31 -34 22
-19 c110 -94 322 -94 383 -1 23 36 33 90 24 131 -14 62 -53 91 -165 126 -112
34 -135 49 -135 88 0 66 93 84 187 37 l51 -26 26 39 25 39 -32 19 c-64 39
-158 57 -222 42z"/>
<path d="M3882 3413 c-19 -35 -232 -526 -232 -535 0 -4 22 -8 48 -8 l49 0 28
65 27 65 133 0 132 0 24 -62 25 -63 52 -3 c29 -2 52 1 52 6 0 5 -53 130 -118
278 l-118 269 -46 3 c-37 2 -49 -1 -56 -15z m98 -213 c24 -55 41 -103 38 -105
-3 -3 -44 -5 -91 -3 l-85 3 30 70 c16 39 36 85 43 103 8 17 16 32 18 32 2 0
23 -45 47 -100z"/>
<path d="M4280 3150 l0 -280 50 0 50 0 0 93 c0 52 2 96 4 98 2 2 29 2 60 1
l56 -4 66 -94 67 -94 59 0 59 0 -32 48 c-18 26 -50 70 -71 99 -41 56 -46 73
-24 73 21 0 74 47 91 81 18 33 20 106 4 146 -32 86 -103 113 -301 113 l-138 0
0 -280z m270 181 c52 -11 80 -40 80 -85 0 -69 -49 -96 -177 -96 l-73 0 0 95 0
95 63 0 c34 -1 82 -5 107 -9z"/>
<path d="M5356 3421 c-4 -5 -5 -131 -5 -280 l2 -271 48 0 49 0 0 115 0 115 28
1 c53 1 227 -2 229 -4 1 -2 3 -53 4 -115 l1 -112 54 0 53 0 -2 278 -2 277 -50
0 -50 0 -3 -112 -3 -113 -129 0 -130 0 0 115 0 115 -44 0 c-25 0 -47 -4 -50
-9z"/>
<path d="M5920 3150 l0 -280 50 0 50 0 0 280 0 280 -50 0 -50 0 0 -280z"/>
<path d="M6081 3423 c0 -5 51 -129 113 -278 l112 -270 48 0 47 0 113 275 113
275 -50 3 c-27 2 -53 0 -57 -5 -4 -4 -42 -100 -86 -212 l-79 -204 -16 39 c-9
21 -47 117 -84 212 l-67 172 -54 0 c-30 0 -54 -3 -53 -7z"/>
<path d="M6680 3150 l0 -280 210 0 210 0 0 45 0 45 -160 0 -160 0 0 75 0 75
140 0 140 0 0 45 0 45 -140 0 -140 0 0 70 0 70 155 0 155 0 0 45 0 45 -205 0
-205 0 0 -280z"/>
<path d="M3745 2706 c-107 -65 -119 -237 -21 -311 103 -77 241 -41 291 77 39
94 -8 213 -98 247 -50 19 -128 13 -172 -13z m165 -31 c93 -48 94 -212 1 -260
-17 -8 -50 -15 -75 -15 -36 0 -52 6 -81 31 -69 61 -71 155 -5 221 33 33 44 38
84 38 26 0 60 -7 76 -15z"/>
<path d="M4090 2545 l0 -185 25 0 c25 0 25 1 25 80 l0 80 95 0 c88 0 95 1 95
20 0 19 -7 20 -97 20 l-98 0 3 65 4 65 110 0 c99 0 109 2 106 18 -3 15 -19 17
-136 20 l-132 3 0 -186z"/>
<path d="M4595 2721 c-55 -23 -78 -109 -40 -151 16 -18 72 -40 137 -54 55 -12
77 -66 40 -99 -29 -26 -109 -22 -153 7 -34 23 -36 23 -47 6 -8 -14 -8 -21 1
-28 59 -47 168 -60 215 -25 39 29 56 69 46 106 -12 40 -47 64 -119 83 -68 18
-95 37 -95 69 0 51 81 73 144 40 32 -17 56 -14 56 8 0 34 -129 60 -185 38z"/>
<path d="M4860 2545 c0 -178 1 -185 20 -185 19 0 20 7 20 185 0 178 -1 185
-20 185 -19 0 -20 -7 -20 -185z"/>
<path d="M4987 2723 c-3 -5 -5 -88 -6 -185 l-2 -178 25 0 25 0 3 143 3 144
111 -141 c72 -93 118 -142 132 -144 l22 -3 -3 183 c-2 181 -2 183 -24 186 -22
3 -22 2 -25 -138 l-3 -142 -110 141 c-100 128 -133 158 -148 134z"/>
<path d="M5455 2711 c-67 -41 -95 -92 -95 -169 1 -128 107 -211 231 -182 27 7
60 21 74 32 23 18 25 26 25 94 l0 74 -75 0 c-68 0 -75 -2 -75 -20 0 -18 7 -20
55 -20 l55 0 0 -44 c0 -55 -15 -68 -86 -74 -67 -6 -108 10 -133 52 -44 73 -35
153 26 206 34 30 40 32 94 28 36 -3 66 -11 77 -21 18 -16 20 -16 36 2 17 19
17 20 -23 40 -53 27 -144 28 -186 2z"/>
<path d="M5816 2558 c-43 -95 -80 -179 -83 -185 -3 -8 3 -13 16 -13 15 0 28
14 46 50 l25 50 96 0 95 0 21 -50 c17 -41 25 -50 45 -50 14 0 23 4 21 9 -1 5
-39 88 -83 185 -66 147 -83 176 -100 176 -18 0 -34 -29 -99 -172z m174 -54 c0
-2 -34 -4 -76 -4 -87 0 -85 -7 -31 108 l31 66 38 -83 c21 -46 38 -85 38 -87z"/>
<path d="M6150 2545 c0 -178 1 -185 20 -185 18 0 20 7 20 65 l0 65 65 0 c111
0 164 40 165 123 0 41 -5 53 -30 77 -35 32 -66 40 -166 40 l-74 0 0 -185z
m207 111 c26 -30 28 -44 12 -79 -15 -34 -49 -47 -119 -47 l-60 0 0 81 0 82 72
-5 c62 -5 75 -9 95 -32z"/>
<path d="M6565 2716 c-157 -70 -133 -316 35 -356 63 -15 119 0 170 47 95 85
73 247 -41 305 -40 21 -121 23 -164 4z m152 -46 c86 -52 87 -189 2 -252 -36
-27 -111 -28 -146 -1 -50 36 -67 70 -67 127 0 34 6 63 17 80 42 63 131 85 194
46z"/>
<path d="M6890 2545 l0 -185 25 0 c24 0 25 2 25 70 l0 70 50 0 50 0 52 -70
c43 -58 57 -70 81 -70 l28 0 -55 73 -55 72 34 18 c42 21 55 44 55 94 0 83 -52
113 -195 113 l-95 0 0 -185z m205 131 c60 -25 60 -97 -1 -122 -18 -8 -61 -14
-94 -14 l-60 0 0 75 0 75 60 0 c33 0 76 -6 95 -14z"/>
<path d="M7250 2545 l0 -185 135 0 c128 0 135 1 135 20 0 19 -7 20 -115 20
l-115 0 0 63 0 62 97 0 c95 0 98 1 101 23 4 23 3 23 -95 21 l-98 -3 -3 62 -3
62 111 0 c103 0 110 1 110 20 0 19 -7 20 -130 20 l-130 0 0 -185z"/>
<path d="M1530 1870 c0 -11 7 -20 15 -20 8 0 15 9 15 20 0 11 -7 20 -15 20 -8
0 -15 -9 -15 -20z"/>
<path d="M2060 1870 c0 -15 5 -20 18 -18 9 2 17 10 17 18 0 8 -8 16 -17 18
-13 2 -18 -3 -18 -18z"/>
<path d="M2560 1870 c0 -15 5 -20 18 -18 9 2 17 10 17 18 0 8 -8 16 -17 18
-13 2 -18 -3 -18 -18z"/>
<path d="M3342 1878 c-7 -7 -12 -22 -12 -34 0 -12 -7 -24 -15 -28 -8 -3 -15
-10 -15 -16 0 -5 7 -10 15 -10 12 0 15 -16 15 -85 0 -69 3 -85 15 -85 12 0 15
16 15 85 l0 85 30 0 c17 0 30 5 30 10 0 6 -13 13 -30 17 -20 3 -30 12 -30 23
0 20 23 32 45 24 9 -4 15 0 15 10 0 19 -59 23 -78 4z"/>
<path d="M3620 1755 c0 -113 2 -135 15 -135 12 0 15 14 15 68 0 75 16 102 58
102 34 0 52 -37 52 -107 0 -49 3 -63 15 -63 12 0 15 14 15 68 0 79 -15 113
-54 127 -21 7 -34 6 -57 -7 l-29 -17 0 49 c0 38 -4 50 -15 50 -13 0 -15 -22
-15 -135z"/>
<path d="M4640 1870 c0 -13 7 -20 20 -20 13 0 20 7 20 20 0 13 -7 20 -20 20
-13 0 -20 -7 -20 -20z"/>
<path d="M5300 1755 c0 -113 2 -135 15 -135 13 0 15 22 15 135 0 113 -2 135
-15 135 -13 0 -15 -22 -15 -135z"/>
<path d="M5640 1870 c0 -15 5 -20 18 -18 9 2 17 10 17 18 0 8 -8 16 -17 18
-13 2 -18 -3 -18 -18z"/>
<path d="M5704 1758 c1 -118 3 -133 19 -136 10 -2 17 3 17 13 0 15 2 15 22 1
82 -57 174 53 119 141 -25 40 -78 54 -116 29 l-25 -16 0 50 c0 42 -3 50 -19
50 -17 0 -19 -9 -17 -132z m149 0 c33 -45 3 -108 -52 -108 -59 0 -87 85 -41
122 31 25 68 19 93 -14z"/>
<path d="M7482 1873 c1 -10 0 -33 0 -51 -2 -32 -2 -32 -27 -16 -35 23 -90 11
-113 -24 -9 -15 -17 -45 -17 -70 0 -36 5 -48 28 -68 32 -27 74 -31 103 -9 25
19 34 19 34 -1 0 -9 6 -14 13 -12 9 3 13 41 14 136 2 125 1 132 -17 132 -13 0
-19 -6 -18 -17z m-24 -99 c27 -19 30 -78 5 -106 -37 -41 -106 -8 -106 52 0 59
53 88 101 54z"/>
<path d="M1065 1828 c-12 -29 -37 -84 -54 -121 -35 -77 -37 -87 -18 -87 7 0
21 16 30 35 l17 35 69 0 69 0 12 -35 c8 -24 18 -35 31 -35 22 0 27 -16 -51
159 -54 120 -69 128 -105 49z m81 -75 l14 -33 -54 0 -55 0 27 61 26 60 14 -27
c8 -15 21 -43 28 -61z"/>
<path d="M4090 1750 c0 -108 3 -130 15 -130 11 0 15 20 17 102 l3 101 79 -101
c43 -56 85 -102 92 -102 11 0 14 27 14 130 0 108 -3 130 -15 130 -11 0 -15
-20 -17 -99 l-3 -100 -78 100 c-43 54 -84 99 -92 99 -12 0 -15 -23 -15 -130z"/>
<path d="M5450 1750 l0 -130 85 0 c69 0 85 3 85 15 0 12 -14 15 -70 15 l-70 0
0 115 c0 96 -3 115 -15 115 -13 0 -15 -21 -15 -130z"/>
<path d="M6600 1749 l0 -132 85 5 c63 3 89 9 105 23 27 25 27 79 -1 99 -20 14
-20 16 -5 37 23 33 20 54 -10 78 -22 17 -41 21 -100 21 l-74 0 0 -131z m158
67 c5 -37 -10 -46 -75 -46 l-53 0 0 40 0 41 63 -3 c60 -3 62 -4 65 -32z m6
-92 c38 -38 -1 -74 -81 -74 l-53 0 0 45 0 45 59 0 c41 0 65 -5 75 -16z"/>
<path d="M1950 1839 c0 -16 -4 -28 -9 -24 -5 3 -12 1 -16 -4 -4 -7 -15 -7 -33
0 -39 15 -91 3 -101 -24 -13 -35 3 -61 50 -78 30 -12 44 -22 44 -35 0 -23 -43
-31 -74 -15 -14 8 -22 8 -27 0 -10 -17 11 -31 58 -36 52 -6 81 18 76 63 -2 24
-11 31 -48 45 -47 17 -64 44 -34 56 9 3 30 1 45 -4 16 -7 29 -7 29 -2 0 5 9 9
20 9 18 0 20 -7 20 -69 0 -78 15 -104 58 -99 36 4 39 26 5 30 -27 3 -28 5 -31
71 l-3 67 31 0 c20 0 30 5 30 15 0 10 -10 15 -30 15 -25 0 -30 4 -30 25 0 16
-6 25 -15 25 -10 0 -15 -10 -15 -31z"/>
<path d="M2132 1843 c2 -18 -2 -27 -10 -25 -14 2 -17 -25 -2 -30 5 -1 12 -34
14 -71 5 -80 18 -99 59 -95 40 4 47 26 10 30 -26 3 -28 6 -33 60 -7 73 -5 78
32 78 19 0 28 4 26 13 -3 6 -16 12 -29 12 -19 0 -25 6 -27 28 -2 19 -9 27 -23
27 -16 0 -20 -6 -17 -27z"/>
<path d="M2450 1846 c0 -13 -7 -26 -15 -30 -8 -3 -15 -10 -15 -16 0 -5 7 -10
15 -10 12 0 15 -14 15 -69 0 -78 15 -104 58 -99 36 4 39 26 5 30 -27 3 -28 5
-31 71 l-3 67 31 0 c20 0 30 5 30 16 0 9 -8 14 -17 13 -35 -3 -43 1 -43 26 0
16 -6 25 -15 25 -9 0 -15 -9 -15 -24z"/>
<path d="M3510 1846 c0 -13 -7 -26 -15 -30 -8 -3 -15 -10 -15 -16 0 -5 7 -10
15 -10 12 0 15 -14 15 -69 0 -78 15 -104 58 -99 36 4 39 26 5 30 -27 3 -28 5
-31 71 l-3 67 31 0 c20 0 30 5 30 15 0 8 -3 14 -7 14 -36 -6 -53 3 -53 26 0
16 -6 25 -15 25 -9 0 -15 -9 -15 -24z"/>
<path d="M4530 1845 c0 -14 -4 -25 -10 -25 -5 0 -10 -7 -10 -15 0 -8 5 -15 10
-15 6 0 10 -28 10 -63 0 -76 18 -107 61 -107 19 0 29 5 29 15 0 9 -9 15 -25
15 -14 0 -25 6 -26 13 -1 12 -1 106 0 120 1 4 15 7 32 7 20 0 29 4 27 13 -3 6
-16 12 -29 12 -19 0 -25 6 -27 28 -4 37 -42 39 -42 2z"/>
<path d="M1257 1813 c-4 -3 -7 -48 -7 -100 0 -76 3 -93 15 -93 12 0 15 14 15
63 0 72 18 107 55 107 42 0 55 -25 55 -101 0 -55 3 -69 15 -69 12 0 15 15 15
75 0 67 -3 79 -25 100 -28 29 -61 32 -93 9 -20 -14 -22 -14 -22 0 0 17 -12 21
-23 9z"/>
<path d="M1530 1720 c0 -82 3 -100 15 -100 12 0 15 18 15 100 0 82 -3 100 -15
100 -12 0 -15 -18 -15 -100z"/>
<path d="M1594 1807 c-3 -8 -4 -52 -2 -98 2 -67 6 -84 18 -84 12 0 16 17 20
73 6 88 28 110 81 82 16 -9 19 -22 19 -85 0 -60 3 -75 15 -75 12 0 15 16 15
80 0 67 -3 83 -20 100 -22 22 -60 26 -90 10 -13 -7 -21 -7 -25 0 -9 14 -25 12
-31 -3z"/>
<path d="M2067 1813 c-4 -3 -7 -48 -7 -100 0 -76 3 -93 15 -93 12 0 15 18 15
100 0 92 -5 112 -23 93z"/>
<path d="M2240 1747 c0 -60 4 -79 21 -101 23 -29 74 -36 98 -13 11 10 14 10
18 0 3 -7 11 -13 19 -13 21 0 20 185 -1 194 -12 4 -15 -6 -15 -57 0 -70 -18
-107 -53 -107 -42 0 -52 16 -57 91 -3 45 -10 74 -17 77 -10 3 -13 -16 -13 -71z"/>
<path d="M2567 1813 c-4 -3 -7 -48 -7 -100 0 -76 3 -93 15 -93 12 0 15 18 15
100 0 92 -5 112 -23 93z"/>
<path d="M2653 1796 c-40 -34 -49 -74 -28 -119 45 -95 185 -63 185 42 0 54
-32 90 -86 98 -33 4 -45 1 -71 -21z m107 -26 c42 -42 12 -120 -47 -120 -39 0
-63 27 -63 71 0 62 67 92 110 49z"/>
<path d="M2843 1813 c-9 -3 -13 -32 -13 -99 0 -77 3 -94 15 -94 12 0 15 14 15
65 0 70 20 105 59 105 37 0 51 -27 51 -101 0 -55 3 -69 15 -69 12 0 15 15 15
79 0 74 -2 81 -26 100 -32 25 -61 27 -91 6 -18 -12 -22 -13 -25 -2 -2 8 -9 12
-15 10z"/>
<path d="M3148 1804 c-57 -31 -66 -107 -19 -155 49 -49 126 -35 156 28 21 44
12 85 -27 118 -33 28 -70 31 -110 9z m92 -32 c28 -23 30 -75 4 -103 -38 -43
-114 -9 -114 51 0 60 64 90 110 52z"/>
<path d="M3853 1808 c-36 -18 -56 -71 -43 -118 13 -47 42 -70 90 -70 43 0 87
27 71 43 -8 8 -14 8 -23 -1 -29 -29 -108 -5 -108 34 0 11 17 14 75 14 45 0 75
4 75 10 0 6 -7 26 -15 45 -20 49 -72 67 -122 43z m81 -34 c31 -31 20 -44 -39
-44 -59 0 -68 10 -38 42 20 22 56 23 77 2z"/>
<path d="M4368 1814 c-10 -3 -18 -12 -18 -20 0 -11 9 -13 40 -8 31 5 45 3 60
-11 30 -28 24 -35 -28 -35 -60 0 -92 -21 -92 -60 0 -49 62 -76 113 -49 16 9
22 9 25 0 2 -6 11 -11 19 -11 22 0 15 152 -8 175 -17 17 -81 27 -111 19z m91
-103 c19 -12 4 -50 -24 -57 -38 -9 -69 -1 -73 20 -7 36 59 61 97 37z"/>
<path d="M4645 1807 c-3 -7 -5 -52 -3 -98 2 -67 6 -84 18 -84 12 0 15 17 15
94 0 66 -4 95 -12 98 -7 3 -15 -2 -18 -10z"/>
<path d="M4754 1810 c-33 -13 -54 -50 -54 -93 0 -104 141 -134 185 -40 40 84
-43 169 -131 133z m86 -38 c28 -23 30 -75 4 -103 -38 -43 -114 -9 -114 51 0
60 64 90 110 52z"/>
<path d="M4918 1808 c-3 -7 -5 -51 -4 -98 1 -72 4 -85 19 -88 15 -3 17 5 17
67 0 76 13 101 54 101 37 0 46 -19 46 -97 0 -55 3 -73 14 -73 7 0 16 9 19 20
9 33 1 123 -12 147 -15 28 -56 39 -93 25 -16 -6 -30 -6 -34 -1 -8 13 -21 11
-26 -3z"/>
<path d="M5138 1814 c-10 -3 -18 -12 -18 -20 0 -11 9 -13 40 -8 31 5 45 3 60
-11 30 -28 24 -35 -28 -35 -60 0 -92 -21 -92 -60 0 -49 62 -76 113 -49 16 9
22 9 25 0 2 -6 11 -11 19 -11 22 0 15 152 -8 175 -17 17 -81 27 -111 19z m91
-103 c19 -12 4 -50 -24 -57 -38 -9 -69 -1 -73 20 -7 36 59 61 97 37z"/>
<path d="M5647 1813 c-4 -3 -7 -48 -7 -100 0 -76 3 -93 15 -93 12 0 15 18 15
100 0 92 -5 112 -23 93z"/>
<path d="M5920 1720 c0 -82 3 -100 15 -100 11 0 15 12 15 49 0 60 12 96 37
105 34 14 135 17 149 5 29 -24 16 -39 -33 -39 -78 -1 -111 -44 -72 -93 22 -29
64 -36 99 -17 13 7 21 7 25 0 16 -27 25 -3 25 69 0 86 -9 105 -57 117 -14 4
-40 2 -59 -4 -19 -6 -34 -6 -34 -1 0 15 -26 10 -53 -11 -25 -20 -25 -20 -30 0
-3 11 -10 20 -16 20 -7 0 -11 -34 -11 -100z m227 -16 c11 -29 -11 -49 -53 -49
-42 0 -57 22 -34 50 17 21 79 19 87 -1z"/>
<path d="M6217 1813 c-4 -3 -7 -48 -7 -100 0 -76 3 -93 15 -93 11 0 15 12 15
48 0 53 15 88 45 108 29 19 40 8 79 -77 37 -83 35 -102 -10 -104 -36 -2 -43
-22 -11 -30 44 -11 63 10 111 124 47 111 53 131 37 131 -14 0 -26 -21 -51 -87
-12 -35 -26 -61 -29 -58 -4 2 -20 34 -35 70 -33 77 -59 91 -107 56 -29 -21
-29 -21 -29 -1 0 20 -11 26 -23 13z"/>
<path d="M6869 1805 c-56 -30 -63 -125 -12 -165 57 -44 146 -13 159 56 16 89
-68 152 -147 109z m100 -41 c27 -34 27 -64 1 -92 -29 -31 -73 -29 -99 4 -12
15 -21 34 -21 44 0 31 39 70 70 70 19 0 36 -9 49 -26z"/>
<path d="M7072 1812 c-36 -11 -21 -27 21 -24 40 4 67 -10 67 -34 0 -10 -14
-14 -49 -14 -63 0 -88 -21 -81 -70 6 -43 65 -64 110 -40 13 7 21 7 25 0 16
-26 25 -3 25 68 0 83 -4 93 -37 111 -23 12 -45 13 -81 3z m85 -108 c11 -29
-11 -49 -53 -49 -42 0 -57 22 -34 50 17 21 79 19 87 -1z"/>
<path d="M7233 1813 c-19 -7 -18 -193 1 -193 10 0 15 18 18 60 5 63 26 100 60
100 11 0 18 7 18 20 0 26 -20 25 -53 0 -25 -20 -26 -20 -29 -2 -2 11 -9 17
-15 15z"/>
</g>
</svg>
